HIERARCHY
ROOT pelvis
{
  OFFSET 0 100 0
  CHANNELS 6 Xposition Yposition Zposition Zrotation Xrotation Yrotation
  JOINT pelvis_right_femur
  {
    OFFSET -10.78128 -3.44521 -0.5502486
    CHANNELS 3 Zrotation Xrotation Yrotation
    JOINT right_femur_tibia
    {
      OFFSET -0.8047443 -44.0398 -0.1307829
      CHANNELS 3 Zrotation Xrotation Yrotation
      JOINT right_tibia_foot
      {
        OFFSET 3.006224 -47.83518 -5
        CHANNELS 3 Zrotation Xrotation Yrotation
        End Site
        {
          OFFSET 0 -5 15
        }
      }
    }
  }
  JOINT pelvis_left_femur
  {
    OFFSET 10.78128 -3.44521 -0.5502486
    CHANNELS 3 Zrotation Xrotation Yrotation
    JOINT left_femur_tibia
    {
      OFFSET 0.8047443 -44.0398 -0.1307829
      CHANNELS 3 Zrotation Xrotation Yrotation
      JOINT left_tibia_foot
      {
        OFFSET -4.370144 -48.10324 -4.275266
        CHANNELS 3 Zrotation Xrotation Yrotation
        End Site
        {
          OFFSET 0 -5 15
        }
      }
    }
  }
  JOINT pelvis_spine1
  {
    OFFSET 0 6.468898 -3.129235
    CHANNELS 3 Zrotation Xrotation Yrotation
    JOINT spine1
    {
      OFFSET 0 23.15396 4.99043
      CHANNELS 3 Zrotation Xrotation Yrotation
      JOINT spine2
      {
        OFFSET 0 20.79997 -5.064912
        CHANNELS 3 Zrotation Xrotation Yrotation
        JOINT neck
        {
          OFFSET 0 14.38658 9.616178
          CHANNELS 3 Zrotation Xrotation Yrotation
          End Site
          {
            OFFSET 0 20 0
          }
        }
      }
      JOINT right_manubrium
      {
        OFFSET -5.722621 16.35077 3.967754
        CHANNELS 3 Zrotation Xrotation Yrotation
        JOINT right_clavicle
        {
          OFFSET -13.16364 1.694482 -4.693211
          CHANNELS 3 Zrotation Xrotation Yrotation
          JOINT right_humerus
          {
            OFFSET -28.5034 -0.3100689 -2.792744
            CHANNELS 3 Zrotation Xrotation Yrotation
            JOINT right_radius
            {
              OFFSET -25.15693 0.02248979 -1.271978
              CHANNELS 3 Zrotation Xrotation Yrotation
              End Site
              {
                OFFSET -15 0 0
              }
            }
          }
        }
      }
      JOINT left_manubrium
      {
        OFFSET 5.722621 16.35077 3.967754
        CHANNELS 3 Zrotation Xrotation Yrotation
        JOINT left_clavicle
        {
          OFFSET 13.16364 1.694482 -4.693211
          CHANNELS 3 Zrotation Xrotation Yrotation
          JOINT left_humerus
          {
            OFFSET 29.39168 -1.063119 -2.237045
            CHANNELS 3 Zrotation Xrotation Yrotation
            JOINT left_radius
            {
              OFFSET 24.59957 -0.9528479 0.9047498
              CHANNELS 3 Zrotation Xrotation Yrotation
              End Site
              {
                OFFSET 15 -0 -0
              }
            }
          }
        }
      }
    }
  }
}
MOTION
Frames: 17
Frame Time: 0.0416666666667
0 103.5113 0 2.174579 -1.1984 0.2878009 1.265874 -10.09017 8.751142 -0 34.73229 -0 -5.270791 -17.98299 -2.428165 -8.0295 10.0892 -23.512 -0 5.132343 -0 7.681902 -16.15617 26.58457 -4.327874 -5.050102 4.941324 2.002691 9.222929 -7.752338 0.8346243 22.81686 7.183231 3.253581 -23.10356 8.820852 6.374529 -19.7675 11.57668 86.31379 35.94787 -19.78261 -0 0 16.27119 -7.581524 8.243855 4.622381 5.483582 -19.49339 -1.687237 -94.77543 29.73946 22.94258 0 0 -15.98932 3.517166 17.87651 9.552202
0.3303575 103.4534 1.362298 2.021772 -1.058765 0.4639675 1.548424 -11.12151 8.620426 -0 34.34787 -0 -5.294343 -17.55124 -2.438156 -7.882489 10.21677 -23.38341 -0 5.168383 -0 7.531735 -16.45648 26.40101 -4.264612 -4.850265 4.889223 2.094359 9.206497 -7.779058 0.8458587 22.69283 7.218599 3.282497 -23.24641 8.858805 6.357602 -19.70871 11.58362 86.30511 35.93215 -19.84375 -0 0 16.15907 -7.62644 8.280553 4.643667 5.579342 -19.54694 -1.676175 -94.66359 29.67592 22.76409 0 0 -16.36919 3.626012 17.74462 9.48965
0.6900378 103.3164 2.864808 1.835948 -0.780681 0.5129574 1.869854 -12.62241 8.276152 -0 32.4574 -0 -5.268218 -16.70243 -2.118539 -7.726084 10.38493 -23.12945 -0 5.251332 -0 7.278116 -16.95209 26.06688 -4.241935 -4.562597 4.88667 2.293835 9.166608 -7.782459 0.8765336 22.44217 7.256598 3.341333 -23.4656 8.890935 6.312096 -19.56302 11.60153 86.30383 35.91359 -20.01079 -0 0 15.89293 -7.687769 8.341577 4.653673 5.816936 -19.62207 -1.671807 -94.48876 29.57683 22.36767 0 0 -17.1471 3.812239 17.56795 9.334519
1.106114 103.0365 4.599254 1.675821 -0.3334852 0.4302905 2.127025 -14.43474 7.660098 -0 28.50149 -0 -5.17158 -15.33519 -1.376841 -7.650199 10.59843 -22.71404 -0 5.447219 -0 6.910222 -17.64904 25.53916 -4.303247 -4.226842 4.978098 2.585106 9.09979 -7.71793 0.9574692 22.06827 7.275896 3.443255 -23.7438 8.916576 6.211463 -19.28292 11.62432 86.34105 35.89091 -20.33014 -0 0 15.4336 -7.765078 8.430565 4.647482 6.210921 -19.75863 -1.670775 -94.22521 29.46106 21.69781 0 0 -18.36678 4.050338 17.35438 9.059723
1.589124 102.5487 6.622304 1.628791 0.2145867 0.3298014 2.198862 -16.26943 6.832075 -0 22.73532 -0 -5.024225 -13.53706 -0.3411332 -7.726788 10.89511 -22.12904 -0 5.867358 -0 6.412449 -18.45518 24.7794 -4.431773 -3.941733 5.16806 2.870862 9.032676 -7.543125 1.073564 21.69368 7.270442 3.566612 -24.01069 8.933984 6.031926 -18.87776 11.62421 86.4569 35.85849 -20.77676 -0 0 14.82716 -7.863127 8.547971 4.642294 6.718248 -20.01218 -1.625872 -93.8383 29.3546 20.79583 0 0 -19.84498 4.275921 17.10204 8.717588
2.142356 101.869 8.987541 1.693951 0.8322346 0.2866877 2.071613 -17.84419 5.859732 -0 15.89071 -0 -4.893732 -11.59057 0.820418 -7.929541 11.31243 -21.37035 -0 6.597666 -0 5.742325 -19.24337 23.73795 -4.578424 -3.757196 5.327002 3.066496 8.965895 -7.369627 1.163162 21.41654 7.273377 3.682304 -24.1918 8.933276 5.791163 -18.46969 11.5401 86.66028 35.82565 -21.25538 -0 0 14.14163 -7.979654 8.697087 4.659613 7.227577 -20.33156 -1.539028 -93.35681 29.24875 19.82208 0 0 -21.26169 4.44096 16.80591 8.414348
2.734597 101.0579 11.76665 1.775322 1.468809 0.4000366 1.898552 -18.90177 4.879987 -0 9.121539 -0 -4.868703 -9.869402 1.959336 -8.139138 11.84254 -20.44886 -0 7.807208 -0 4.832467 -19.85327 22.3957 -4.633628 -3.672931 5.356717 3.165695 8.90323 -7.29782 1.174253 21.25367 7.314622 3.763316 -24.26075 8.906767 5.544655 -18.04776 11.37148 87.01561 35.79542 -21.78633 -0 0 13.37685 -8.102276 8.888425 4.704813 7.604026 -20.67766 -1.46148 -92.82698 29.13543 18.90619 0 0 -22.34044 4.520747 16.46874 8.244297
3.324335 100.2241 15.04857 1.751472 2.077473 0.7912465 1.849668 -19.17747 4.062702 -0 3.682038 -0 -5.032593 -8.64961 2.926788 -8.198662 12.41277 -19.38016 -0 9.748843 -0 3.596398 -20.03318 20.74226 -4.476846 -3.69122 5.215635 3.209338 8.833437 -7.384831 1.099171 21.16907 7.395332 3.799094 -24.24188 8.852478 5.34845 -17.58524 11.16221 87.53236 35.76996 -22.38874 -0 0 12.52889 -8.23788 9.129693 4.784035 7.723715 -20.98543 -1.457003 -92.32838 29.00666 18.18029 0 0 -22.88392 4.499008 16.09417 8.261034
3.900387 99.54522 18.90854 1.535508 2.642833 1.504747 1.98524 -18.39298 3.533176 -0 0.5322472 -0 -5.444894 -7.989056 3.575505 -7.975081 12.86643 -18.19561 -0 12.7342 -0 1.959995 -19.39994 18.7787 -4.023692 -3.842637 4.90648 3.235531 8.733991 -7.644118 0.9615843 21.11229 7.48984 3.790575 -24.17446 8.763688 5.229794 -17.12565 10.96384 88.12789 35.75724 -23.00141 -0 0 11.63349 -8.418927 9.42105 4.912737 7.510095 -21.1396 -1.569476 -91.97767 28.85069 17.80293 0 0 -22.77374 4.359189 15.68034 8.477362
4.458186 99.19943 23.3422 1.118322 3.134252 2.418095 2.258469 -16.36621 3.312711 0 -0.1955249 0 -6.095751 -7.762444 3.851846 -7.46005 12.93641 -16.97886 -0 17.12586 -0 -0.05241834 -17.49797 16.58664 -3.255388 -4.14347 4.507445 3.235168 8.636293 -7.995007 0.7578434 21.05961 7.572029 3.720726 -24.03937 8.608066 5.173001 -16.6765 10.82424 88.75632 35.76004 -23.56594 -0 0 10.73578 -8.670717 9.760995 5.102284 6.990874 -21.06234 -1.789921 -91.86986 28.66057 17.8693 0 0 -22.01123 4.092086 15.2242 8.877451
5.017203 99.30864 28.29941 0.6283678 3.275426 3.229961 2.6426 -13.24262 3.370602 -0 0.4814251 -0 -6.844429 -8.035778 3.912206 -6.910103 12.26113 -15.79149 -0 23.37827 -0 -2.217513 -14.07047 14.37141 -2.270426 -4.480743 4.237714 3.159365 8.641944 -8.229278 0.4817188 21.07308 7.617779 3.576883 -23.74793 8.351713 5.128043 -16.26051 10.79861 89.33292 35.78153 -23.95917 -0 0 9.95176 -9.028704 10.14179 5.380704 6.281184 -20.7594 -2.038858 -92.02381 28.43295 18.36041 0 0 -20.76949 3.711605 14.73814 9.400812
5.58844 99.90173 33.62711 0.3042382 2.861297 3.611394 2.974294 -9.064707 3.548175 -0 1.383034 -0 -7.513638 -8.972119 3.947574 -6.566649 10.44338 -14.65576 -0 31.63672 -0 -4.118168 -9.462046 12.46309 -1.335087 -4.698807 4.348678 2.98255 8.828679 -8.140975 0.1592765 21.23903 7.600003 3.379121 -23.26152 7.980675 5.133353 -15.93101 10.95791 89.75747 35.83727 -24.03188 -0 0 9.36994 -9.524295 10.55608 5.76821 5.503346 -20.34264 -2.25482 -92.35005 28.17257 19.13617 0 0 -19.31642 3.25463 14.24951 9.966351
6.172268 100.8995 39.08526 0.3916019 1.848593 3.464564 2.971419 -3.771023 3.645605 -0 1.696772 -0 -7.957006 -10.57917 4.09515 -6.429071 7.063492 -13.54504 -0 41.27788 -0 -5.380732 -4.693173 11.19724 -0.7810577 -4.67207 4.972369 2.705858 9.210542 -7.666367 -0.1409004 21.60677 7.484243 3.177611 -22.59753 7.504841 5.24495 -15.77202 11.30949 89.89128 35.94586 -23.64677 -0 0 9.061652 -10.20539 10.98932 6.284109 4.748526 -19.93746 -2.412759 -92.72533 27.88122 20.037 0 0 -17.91409 2.770909 13.78487 10.49057
6.787794 102.142 44.45431 1.018752 0.3498029 3.063675 2.391294 2.540456 3.573819 -0 1.092276 -0 -8.080497 -12.56616 4.423196 -6.289613 1.871991 -12.41751 -0 50.71471 -0 -5.879417 -1.075634 10.76062 -0.8323957 -4.375342 6.036076 2.341648 9.71861 -6.927895 -0.3299547 22.15851 7.236986 3.028837 -21.78956 6.953375 5.425271 -15.88601 11.74284 89.55921 36.10948 -22.69418 -0 0 9.126033 -11.15056 11.41097 6.957063 4.100995 -19.605 -2.487332 -93.05738 27.54728 20.95805 0 0 -16.76248 2.317927 13.35756 10.89969
7.406204 103.4672 49.57829 2.039786 -1.306089 2.700843 1.301303 9.321933 3.442967 0 -0.4163306 0 -7.832341 -14.53441 4.931999 -6.178805 -4.675702 -11.39004 -0 57.97496 -0 -5.789617 0.878289 10.93632 -1.40745 -3.943353 7.321897 1.903054 10.191 -6.075804 -0.3808013 22.82711 6.868321 2.94788 -20.86727 6.366027 5.53439 -16.34254 12.1128 88.68229 36.29485 -21.10642 -0 0 9.675114 -12.4236 11.78245 7.804978 3.710923 -19.36707 -2.407621 -93.27328 27.16132 21.81798 0 0 -15.99156 1.952377 12.97087 11.1565
8.036292 104.7161 54.44104 3.258874 -2.825551 2.501813 -0.1032706 16.03672 3.377082 0 -2.50447 0 -7.239842 -16.27408 5.560545 -5.976169 -11.94877 -10.49772 -0 61.51281 -0 -5.211534 1.309457 11.63074 -2.300333 -3.510714 8.564829 1.377169 10.54429 -5.226618 -0.3466482 23.51994 6.45128 2.9015 -19.90389 5.804966 5.447244 -17.11708 12.33678 87.30367 36.43539 -18.92751 -0 0 10.76848 -14.03355 12.07218 8.827774 3.623729 -19.15179 -2.183966 -93.39967 26.74435 22.65639 0 0 -15.50592 1.648635 12.61579 11.31292
8.712392 105.6398 59.14074 4.361295 -3.965553 2.454386 -1.487022 22.21747 3.412797 0 -4.718735 0 -6.39091 -17.80389 6.220911 -5.426532 -19.10323 -9.5078 -0 60.45132 -0 -4.456747 0.9390462 12.90359 -3.195941 -3.220534 9.541817 0.8083638 10.71402 -4.475964 -0.2939517 24.10012 6.068806 2.847315 -18.98687 5.330338 5.095481 -18.12805 12.39798 85.52198 36.45803 -16.27163 -0 0 12.41482 -15.93819 12.26062 10.01186 3.794206 -18.86377 -1.891995 -93.50619 26.32443 23.52361 0 0 -15.12649 1.346517 12.27536 11.44986
